<?xml version="1.0" encoding="iso-8859-1"?>
<!-- Generator: Adobe Illustrator 18.1.1, SVG Export Plug-In . SVG Version: 6.00 Build 0)  -->
<svg version="1.1" id="Capa_1" xmlns="http://www.w3.org/2000/svg" xmlns:xlink="http://www.w3.org/1999/xlink" x="0px" y="0px"
	 viewBox="0 0 32.643 32.643" style="enable-background:new 0 0 32.643 32.643;" xml:space="preserve">
<g>
	<path style="fill:#017E91;" d="M3.978,27.015c-3.836-2.784-5.879-7.808-1.541-10.171c2.037-1.11,1.337-1.6,1.497-3.414
		c0.295-3.342,1.862-2.531,5.364-2.343c2.279,0.123,2.188-0.118,3.559-1.847c6.482-8.183,15.403-0.672,16.064,4.931
		c0.261,2.198-0.371,1.697,1.647,3.11c4.352,3.046,1.287,7.948-3.92,9.449c4.184-1.553,6.436-5.6,2.77-8.165
		c-1.794-1.256-1.233-0.811-1.464-2.764c-0.589-4.982-8.519-11.66-14.283-4.384c-1.217,1.537-1.136,1.75-3.162,1.642
		C7.396,12.89,6.003,12.17,5.74,15.141c-0.143,1.612,0.479,2.048-1.331,3.035c-3.752,2.045-2.134,6.33,1.098,8.839H3.978z"/>
</g>
</svg>
