<?xml version="1.0" encoding="iso-8859-1"?>
<svg version="1.1" id="Capa_1" xmlns="http://www.w3.org/2000/svg" xmlns:xlink="http://www.w3.org/1999/xlink" x="0px" y="0px" viewBox="0 0 299 299" style="enable-background:new 0 0 299 299; fill:#FFFFFF;" xml:space="preserve">
	<path d="M291.5,141.5h-12.255c2.823-2.949,2.776-7.624-0.135-10.509c-2.943-2.916-7.691-2.893-10.607,0.048L258.138,141.5h-12.832
	l9.842-9.892c2.922-2.936,2.91-7.685-0.026-10.606c-2.938-2.923-7.686-2.91-10.606,0.026l-20.37,20.472h-8.067
	c-0.602-1.02-1.323-1.988-2.199-2.865c-5.594-5.587-14.648-5.587-20.242,0c-0.876,0.877-1.598,1.846-2.199,2.865h-13.038
	c-0.671-2.44-1.651-4.811-2.948-7.05l21.152-21.151l28.655,0.201c0.006,0,0.013,0,0.019,0c4.134,0,7.489-3.517,7.5-7.652
	c0.011-4.142-3.339-7.679-7.481-7.689l-13.523-0.029L226.49,83.41l28.467,0.09c0.006,0,0.013,0,0.019,0
	c4.134,0,7.489-3.385,7.5-7.521c0.011-4.142-3.339-7.547-7.481-7.558l-13.466-0.05l15.331-15.331c2.929-2.93,2.929-7.678,0-10.607
	c-2.93-2.928-7.678-2.928-10.607,0l-15.431,15.431l-0.069-13.789c-0.021-4.129-3.374-7.575-7.499-7.575c-0.013,0-0.026,0-0.039,0
	c-4.142,0-7.482,3.521-7.462,7.664l0.143,28.626l-14.773,14.772l-0.068-13.639c-0.02-4.129-3.374-7.424-7.499-7.424
	c-0.013,0-0.026,0-0.039,0c-4.142,0-7.482,3.445-7.462,7.588l0.143,28.401l-21.435,21.268c-2.322-1.396-4.594-2.459-7.594-3.176
	v-14.22c1-0.504,1.626-1.081,2.288-1.741c5.587-5.594,5.504-14.649-0.083-20.243c-0.661-0.661-1.204-1.237-2.204-1.741v-9.266
	l19.894-19.63c2.937-2.922,3.032-7.67,0.11-10.606c-2.923-2.937-7.797-2.949-10.731-0.026l-9.272,9.102V39.382l9.883-9.63
	c2.942-2.916,2.881-7.664-0.035-10.607c-2.653-2.676-6.848-2.927-9.848-0.757V7.5c0-4.143-3.357-7.5-7.5-7.5
	c-4.143,0-7.5,3.357-7.5,7.5v11.741l-0.003-0.167c-2.953-2.9-7.618-2.859-10.523,0.097c-2.902,2.955-2.983,7.704-0.028,10.606
	l10.555,10.487v12.878l-9.982-10.047c-2.942-2.913-7.608-2.89-10.523,0.054c-2.914,2.943-3.015,7.692-0.071,10.607l20.576,20.494
	v7.778c-1,0.626-2.004,1.4-2.955,2.35c-5.587,5.594-5.67,14.649-0.083,20.243c0.95,0.949,2.038,1.724,3.038,2.35v13.352
	c-3,0.675-5.376,1.759-7.889,3.222l-18.483-18.566l0.311-30.784c0.036-4.143-3.25-7.693-7.393-7.693c-0.022,0-0.044,0-0.066,0
	c-4.111,0-7.463,3.447-7.499,7.567l-0.14,16.04L85.794,74.894l0.07-27.86c0.011-4.142-3.339-7.533-7.482-7.533
	c-0.006,0-0.013,0-0.018,0c-4.134,0-7.489,3.376-7.5,7.512l-0.033,12.919l-16.79-16.79c-2.93-2.928-7.678-2.928-10.607,0
	c-2.929,2.93-2.929,7.678,0,10.607l17.476,17.476l-14.307,0.091c-4.142,0.02-7.482,3.457-7.462,7.6
	c0.021,4.129,3.374,7.586,7.499,7.586c0.013,0,0.026,0,0.039,0l29.262-0.246L88.3,98.614L77.004,98.5c-0.027,0-0.054,0-0.081,0
	c-4.104,0-7.454,3.296-7.498,7.41c-0.043,4.142,3.279,7.524,7.421,7.568l26.599,0.28l20.322,20.323
	c-1.404,2.346-2.456,4.844-3.164,7.418h-13.026c-0.601-1.02-1.323-1.988-2.198-2.865c-5.594-5.586-14.65-5.586-20.244,0
	c-0.875,0.877-1.598,1.846-2.198,2.865h-8.068l-20.37-20.472c-2.922-2.937-7.671-2.949-10.607-0.026
	c-2.936,2.922-2.948,7.67-0.026,10.606l9.843,9.892H40.875l-10.367-10.461c-2.917-2.941-7.665-2.964-10.606-0.048
	c-2.911,2.885-2.958,7.56-0.135,10.509H7.5c-4.143,0-7.5,3.357-7.5,7.5s3.357,7.5,7.5,7.5h11.822
	c-2.377,2.968-2.165,7.311,0.605,10.033c1.461,1.434,3.358,2.148,5.255,2.148c1.942,0,3.883-0.75,5.352-2.245l9.756-9.936h12.873
	l-9.311,9.405c-2.914,2.943-2.89,7.692,0.054,10.606c1.462,1.447,3.369,2.17,5.276,2.17c1.932,0,3.863-0.742,5.33-2.224L74.27,156.5
	h8.954c0.542,0.841,1.174,1.641,1.91,2.377c5.594,5.588,14.65,5.588,20.244,0c0.736-0.736,1.368-1.536,1.91-2.377h13.052
	c0.698,2.929,1.841,5.77,3.427,8.419l-18.294,18.294l-28.27,0.2c-4.142,0.028-7.477,3.436-7.449,7.579
	c0.028,4.125,3.38,7.508,7.499,7.508c0.017,0,0.034,0,0.052,0l12.946-0.065l-13.149,13.149L48.679,211.5c-0.014,0-0.026,0-0.039,0
	c-4.124,0-7.479,3.279-7.499,7.408c-0.021,4.143,3.32,7.464,7.462,7.484l13.591,0.1l-16.76,16.76c-2.929,2.93-2.929,7.678,0,10.607
	c1.465,1.464,3.385,2.196,5.304,2.196c1.919,0,3.839-0.732,5.304-2.196l16.788-16.788l0.035,13.727
	c0.011,4.137,3.366,7.701,7.5,7.701c0.006,0,0.013,0,0.018,0c4.143,0,7.492-3.557,7.482-7.697l-0.072-28.694l13.486-13.485
	l0.2,14.285c0.058,4.105,3.404,7.592,7.497,7.592c0.035,0,0.071,0,0.107,0c4.142,0,7.452-3.652,7.394-7.795l-0.404-28.877
	l18.206-18.373c2.514,1.464,4.888,2.548,7.888,3.222v11.852c-1,0.626-2.004,1.4-2.955,2.35c-5.587,5.594-5.67,14.649-0.083,20.243
	c0.95,0.949,2.038,1.724,3.038,2.35v7.778l-20.535,20.494c-2.944,2.914-2.884,7.663,0.03,10.607
	c2.915,2.944,7.539,2.967,10.482,0.054l10.024-10.047v12.878l-10.513,10.487c-2.955,2.902-2.916,7.651-0.013,10.606
	c2.903,2.955,7.528,2.999,10.482,0.097l0.045-0.167V291.5c0,4.143,3.357,7.5,7.5,7.5c4.143,0,7.5-3.357,7.5-7.5v-12.389
	c2,0.971,3.042,1.464,4.604,1.464c1.931,0,3.944-0.741,5.41-2.221c2.916-2.942,2.77-7.69-0.173-10.607l-9.842-9.63V245.29
	l9.314,9.102c1.464,1.456,3.46,2.184,5.373,2.184c1.926,0,3.892-0.737,5.358-2.21c2.922-2.937,2.765-7.685-0.172-10.606
	l-19.873-19.63v-9.266c1-0.504,1.626-1.08,2.288-1.741c5.587-5.594,5.504-14.649-0.083-20.243c-0.661-0.66-1.204-1.237-2.204-1.741
	v-12.72c3-0.717,5.273-1.778,7.594-3.176l21.081,20.998l0.5,26.029c0.071,4.098,3.457,7.23,7.538,7.23c0.045,0,0.09,0,0.134,0
	c4.142,0,7.44-3.322,7.368-7.464l-0.186-10.525l11.287,11.287l-0.145,29.139c-0.021,4.143,3.32,7.564,7.462,7.564
	c0.014,0,0.026,0,0.039,0c4.124,0,7.479-3.373,7.499-7.502l0.072-14.273l16.842,16.842c1.465,1.464,3.385,2.196,5.304,2.196
	c1.919,0,3.839-0.732,5.304-2.196c2.929-2.93,2.929-7.678,0-10.607l-16.241-16.242l12.962-0.048
	c4.143-0.011,7.492-3.433,7.481-7.575c-0.011-4.137-3.366-7.594-7.5-7.594c-0.006,0-0.013,0-0.018,0l-27.982,0.161l-14.283-14.284
	l16.441-0.213c4.142-0.063,7.448-3.359,7.385-7.502c-0.063-4.102-3.407-7.162-7.497-7.162c-0.038,0-0.077,0-0.116,0l-30.848,0.243
	l-19.193-19.194c1.473-2.543,2.544-5.257,3.209-8.049h13.065c0.542,0.841,1.175,1.641,1.911,2.377
	c5.594,5.587,14.648,5.587,20.242,0c0.736-0.736,1.369-1.536,1.911-2.377h8.953l19.759,19.957c1.467,1.482,3.398,2.224,5.33,2.224
	c1.907,0,3.814-0.723,5.276-2.17c2.944-2.915,2.968-7.663,0.054-10.606l-9.311-9.404h12.872l9.758,9.936
	c1.468,1.495,3.408,2.245,5.351,2.245c1.896,0,3.795-0.715,5.255-2.149c2.771-2.721,2.982-7.064,0.605-10.031H291.5
	c4.143,0,7.5-3.357,7.5-7.5S295.643,141.5,291.5,141.5z"/>
</svg>
